<svg width="16" height="13" viewBox="0 0 16 13" fill="none" xmlns="http://www.w3.org/2000/svg">
<path fill-rule="evenodd" clip-rule="evenodd" d="M1 2.5V10.5C1 11.0304 1.21071 11.5391 1.58579 11.9142C1.96086 12.2893 2.46957 12.5 3 12.5H13C13.5304 12.5 14.0391 12.2893 14.4142 11.9142C14.7893 11.5391 15 11.0304 15 10.5V2.5C15 1.96957 14.7893 1.46086 14.4142 1.08579C14.0391 0.710714 13.5304 0.5 13 0.5H3C2.46957 0.5 1.96086 0.710714 1.58579 1.08579C1.21071 1.46086 1 1.96957 1 2.5Z" stroke="white" stroke-linecap="round" stroke-linejoin="round"/>
<path d="M3 3.5L8 6.5L13 3.5" stroke="white" stroke-linecap="round" stroke-linejoin="round"/>
</svg>
